<svg width="64" height="20" viewBox="0 0 64 20" xmlns="http://www.w3.org/2000/svg"><title>pr-bbc</title><g fill="#14233D" fill-rule="evenodd" opacity=".6"><path d="M34.39 12.56c0 1.995-2.409 1.877-2.409 1.877h-2.409v-3.605h2.409c2.48-.015 2.409 1.729 2.409 1.729zm-4.818-7.224h1.836c1.906.104 1.835 1.566 1.835 1.566 0 1.817-2.108 1.847-2.108 1.847h-1.563V5.336zm4.373 4.122s1.65-.724 1.635-2.644c0 0 .25-3.147-3.796-3.531h-4.492v13.193h5.148s4.301.015 4.301-3.723c0 0 .1-2.541-2.796-3.295zM22.324.698h18.905v18.356H22.324V.697zM12.589 12.56c0 1.995-2.41 1.877-2.41 1.877H7.772v-3.605h2.409c2.48-.015 2.409 1.729 2.409 1.729zM7.77 5.337h1.835c1.907.104 1.836 1.566 1.836 1.566 0 1.817-2.108 1.847-2.108 1.847H7.77V5.336zm4.373 4.122s1.65-.724 1.635-2.644c0 0 .25-3.147-3.796-3.531H5.49v13.193h5.148s4.301.015 4.301-3.723c0 0 .1-2.541-2.796-3.295zM.523.698h18.905v18.356H.523V.697zM59.173 4.228v2.438s-2.308-1.463-4.86-1.492c0 0-4.76-.096-4.976 4.702 0 0-.172 4.413 4.918 4.665 0 0 2.137.266 5.033-1.64v2.526s-3.886 2.379-8.388.547c0 0-3.785-1.426-3.929-6.098 0 0-.157-4.806 4.89-6.401 0 0 1.348-.532 3.77-.296 0 0 1.449.148 3.542 1.05zM44.125 19.054H63.03V.697H44.125v18.357z"/></g></svg>